<?xml version="1.0" encoding="UTF-8"?>
<svg version="1.1" xmlns="http://www.w3.org/2000/svg" width="500" height="500">
<path d="M0 0 C1.98289877 -0.0057174 3.96579426 -0.01268689 5.94868469 -0.02079773 C11.27853779 -0.03857777 16.60822495 -0.03759149 21.93809867 -0.03185534 C26.39956223 -0.02874619 30.86099469 -0.03487392 35.3224538 -0.04089409 C45.84129811 -0.05488322 56.36006107 -0.05342057 66.87890625 -0.04199219 C77.72136111 -0.0304725 88.56356972 -0.04466387 99.40599221 -0.07138866 C108.73885323 -0.09352887 118.07163682 -0.10018812 127.40452224 -0.09431225 C132.96906408 -0.09094279 138.53344749 -0.09335926 144.09796715 -0.11056328 C149.3192935 -0.12600711 154.54025254 -0.12210537 159.76156425 -0.10325813 C161.67638834 -0.09956745 163.59123954 -0.10269464 165.50603867 -0.11314392 C168.11994469 -0.12632045 170.73262801 -0.11483722 173.34648132 -0.09715271 C174.10337979 -0.10675772 174.86027827 -0.11636272 175.64011306 -0.12625879 C180.77767096 -0.05474994 183.72437528 1.07408537 187.62231445 4.40405273 C191.70273214 8.98215334 191.0410659 14.36801077 191.00326538 20.17240906 C191.00794535 21.27062369 191.01262532 22.36883832 191.01744711 23.50033218 C191.02943249 27.18800631 191.01992538 30.87531125 191.01049805 34.56298828 C191.01456248 37.20444832 191.01979518 39.84588277 191.02642822 42.48733521 C191.03977641 48.9250224 191.03688133 55.36260471 191.0281903 61.80029603 C191.02141078 67.03982923 191.02049822 72.27933307 191.02376175 77.5188694 C191.02422145 78.26511783 191.02468115 79.01136627 191.02515478 79.78022829 C191.026114 81.29646447 191.02708664 82.81270063 191.02807255 84.32893679 C191.0366316 98.55572198 191.02678825 112.78244924 191.01067145 127.00922493 C190.99730356 139.1852156 190.99956613 151.36112031 191.01342773 163.53710938 C191.02953637 177.69338085 191.03576997 191.84960129 191.02659094 206.00588065 C191.02563538 207.52046413 191.02469227 209.03504762 191.02376175 210.54963112 C191.02329892 211.29469724 191.0228361 212.03976337 191.02235924 212.80740726 C191.01978246 218.02683171 191.02411261 223.24622353 191.03120041 228.46564293 C191.03967608 234.8473387 191.03721093 241.22892399 191.02135818 247.61060735 C191.01355048 250.8594459 191.01190712 254.10806634 191.02030563 257.3569088 C191.09604329 289.65505406 185.11576612 319.41296427 161.6887207 343.48608398 C143.9178745 360.87797192 118.17408498 370.5838581 93.49145508 370.5377655 C92.14466124 370.54116384 92.14466124 370.54116384 90.77065945 370.54463083 C87.77328123 370.55094188 84.77594857 370.55014331 81.77856445 370.54931641 C79.6245569 370.5523098 77.47054989 370.55571275 75.31654358 370.55949402 C69.47109316 370.56832232 63.62565739 370.57067171 57.78020096 370.5713098 C54.12347512 370.57202126 50.46675299 370.57415745 46.81002808 370.57680702 C34.03895838 370.58605834 21.26789911 370.5901424 8.49682617 370.58935547 C-3.38353914 370.58875554 -15.26385892 370.59929125 -27.14421272 370.61509913 C-37.36106644 370.62820616 -47.57790533 370.633538 -57.79476738 370.63290006 C-63.88899206 370.63264589 -69.98317631 370.63545167 -76.07739258 370.64607811 C-81.81642196 370.65581176 -87.55537271 370.65580237 -93.29440498 370.64856148 C-95.39088621 370.64752198 -97.48737247 370.64984041 -99.58384514 370.65592194 C-122.45948774 370.7179363 -143.42435203 369.36222579 -160.95581055 352.91967773 C-176.13228656 337.15572523 -179.86416571 318.89788628 -179.76586914 297.71069336 C-179.76994788 296.20574058 -179.77529697 294.70079081 -179.78179932 293.19584656 C-179.79532423 289.15652371 -179.79023653 285.11743408 -179.78066206 281.07810783 C-179.77298761 276.82106847 -179.78013242 272.56404711 -179.78482056 268.30700684 C-179.7902557 261.16239899 -179.78314575 254.01788462 -179.76879883 246.87329102 C-179.75247665 238.65086133 -179.75776675 230.42865493 -179.77427804 222.20623064 C-179.78795721 215.10594559 -179.78978135 208.00572717 -179.78196204 200.90543318 C-179.77732064 196.68254921 -179.77656196 192.45976967 -179.7865715 188.2368927 C-179.79533329 184.2639875 -179.78905416 180.29136601 -179.77188873 176.31849098 C-179.76797245 174.87348206 -179.76897275 173.42844862 -179.77567673 171.98344994 C-179.82855702 159.41194006 -178.8480305 146.4161609 -172.75268555 135.15405273 C-172.40858643 134.49421387 -172.0644873 133.834375 -171.70996094 133.15454102 C-168.34912152 126.94050077 -164.22949622 121.54021861 -159.37768555 116.40405273 C-158.83885742 115.82397461 -158.3000293 115.24389648 -157.74487305 114.64624023 C-146.66215657 104.0090601 -132.09906996 101.06626166 -117.3425293 101.20874023 C-115.66363365 101.21298508 -115.66363365 101.21298508 -113.95082092 101.21731567 C-110.40549649 101.22843542 -106.86043254 101.25352484 -103.31518555 101.27905273 C-100.89917359 101.28909314 -98.48315764 101.29821713 -96.06713867 101.30639648 C-90.17056669 101.32834784 -84.27414474 101.36174294 -78.37768555 101.40405273 C-78.38815918 100.10894775 -78.39863281 98.81384277 -78.40942383 97.47949219 C-78.44596616 92.6170535 -78.46870909 87.75462665 -78.48754883 82.89208984 C-78.49752913 80.79831899 -78.51111814 78.70456179 -78.52856445 76.61083984 C-78.71357939 53.81591069 -77.20971262 35.70123168 -61.2019043 17.99780273 C-56.56212762 13.44380344 -51.52789132 10.05619641 -45.81518555 7.02905273 C-45.23381836 6.70718994 -44.65245117 6.38532715 -44.0534668 6.05371094 C-30.71123103 -0.54239176 -14.49927844 -0.0382736 0 0 Z M-45.37768555 36.40405273 C-56.90858639 50.10220723 -55.94913253 66.27509891 -55.87597656 83.15771484 C-55.87980424 85.65905581 -55.8854271 88.16039458 -55.8927002 90.66172791 C-55.90461317 96.02815224 -55.90467129 101.39437378 -55.89410591 106.76078606 C-55.87908688 114.5347104 -55.88914027 122.30845379 -55.9056251 130.08236796 C-55.93202596 142.71849112 -55.94294728 155.35457341 -55.94189453 167.99072266 C-55.94183621 168.74529617 -55.94177789 169.49986969 -55.9417178 170.27730907 C-55.94145197 173.33432428 -55.9411347 176.39133949 -55.94075454 179.44835469 C-55.93978835 187.86124092 -55.94111647 196.27412591 -55.94384766 204.68701172 C-55.94408755 205.44035154 -55.94432744 206.19369135 -55.9445746 206.96985965 C-55.94899137 219.560957 -55.96526356 232.15201659 -55.98906845 244.74309164 C-56.00308275 252.49119108 -56.00606998 260.2391462 -55.99444555 267.98725045 C-55.98621226 273.93139078 -55.99302268 279.87545395 -56.00513458 285.81958961 C-56.00753129 288.24706955 -56.00483897 290.674561 -55.99652672 293.10202789 C-55.89893121 323.42986224 -55.89893121 323.42986224 -63.50268555 337.09155273 C-66.23477005 342.11424016 -66.23477005 342.11424016 -68.37768555 347.40405273 C-47.14071312 347.47433406 -25.90376004 347.5271342 -4.66669464 347.55948925 C5.19546919 347.57491586 15.05756048 347.59592434 24.91967773 347.63037109 C33.52193933 347.66040289 42.12414836 347.67965825 50.72646093 347.68631822 C55.27547564 347.69020728 59.82434005 347.69925796 64.37330627 347.7212429 C68.66771047 347.74182655 72.96190453 347.74784307 77.25635338 347.74337578 C78.82027522 347.74419132 80.38420517 347.75002528 81.94808388 347.76166916 C95.94803584 347.86066436 109.84675399 346.64537592 122.62231445 340.40405273 C123.34290039 340.05729492 124.06348633 339.71053711 124.8059082 339.35327148 C144.61520039 329.07786324 158.07003192 313.65449729 164.85913086 292.62133789 C167.19114087 285.00616004 167.76739807 277.90533232 167.7492981 269.97050476 C167.75085809 268.92069437 167.75241808 267.87088399 167.75402534 266.78926116 C167.75801326 263.27241633 167.75485426 259.75561468 167.75170898 256.23876953 C167.75306396 253.71737137 167.75484444 251.1959734 167.75701904 248.67457581 C167.76110707 242.53887307 167.7605068 236.40318632 167.7576064 230.26748338 C167.75534783 225.28336591 167.75504182 220.29925188 167.75613022 215.31513405 C167.75636007 214.25104783 167.75636007 214.25104783 167.75659456 213.16546491 C167.75691428 211.72440785 167.7572385 210.28335078 167.75756715 208.84229372 C167.76041752 195.33567061 167.75714133 181.82905431 167.75176679 168.32243232 C167.74729432 156.72325227 167.74807918 145.12408222 167.75268555 133.52490234 C167.75803081 120.05878513 167.76014796 106.59267386 167.75707328 93.12655574 C167.75675473 91.69233469 167.75644035 90.25811364 167.75613022 88.82389259 C167.75597594 88.118191 167.75582167 87.41248941 167.75566272 86.68540293 C167.75479778 81.70244966 167.75625984 76.71950015 167.75860977 71.73654747 C167.76169854 65.03974727 167.75951625 58.34296898 167.75371552 51.64616966 C167.75238718 49.18098482 167.75278327 46.71579839 167.75497818 44.25061417 C167.75768665 40.90128161 167.75431237 37.55201104 167.7492981 34.2026825 C167.75152882 33.21360529 167.75375954 32.22452809 167.75605786 31.20547885 C167.75345011 30.31543872 167.75084236 29.4253986 167.74815559 28.50838757 C167.74799324 27.73435249 167.74783089 26.96031741 167.74766362 26.16282672 C167.81335754 24.37674609 167.81335754 24.37674609 166.62231445 23.40405273 C164.28377879 23.30199487 161.97462528 23.26517195 159.63542175 23.27033997 C158.89574404 23.26807441 158.15606632 23.26580885 157.39397413 23.26347464 C154.89609743 23.25710551 152.39827458 23.2579659 149.90039062 23.25878906 C148.11677988 23.25579913 146.33316978 23.25239699 144.54956055 23.24861145 C139.68739541 23.23974413 134.82524784 23.23743202 129.9630754 23.23679566 C125.90312809 23.23584764 121.84318491 23.23217005 117.78323919 23.22862357 C108.19549719 23.22046646 98.60776459 23.21804024 89.02001953 23.21875 C79.14375116 23.21934917 69.2675377 23.20883252 59.39128321 23.19300634 C50.90876516 23.17989992 42.42626495 23.1745675 33.94373685 23.17520541 C28.87959291 23.17545975 23.81549759 23.17264456 18.75136375 23.16202736 C13.97847128 23.15229576 9.20567335 23.15230171 4.4327774 23.15954399 C2.68819095 23.160584 0.94359847 23.15826193 -0.80097771 23.15218353 C-17.22298757 23.09871191 -33.39698841 23.54025752 -45.37768555 36.40405273 Z M-148.99487305 140.58764648 C-159.92897797 153.51140001 -155.89196363 171.37522932 -156.37768555 187.40405273 C-130.63768555 187.40405273 -104.89768555 187.40405273 -78.37768555 187.40405273 C-78.37768555 166.61405273 -78.37768555 145.82405273 -78.37768555 124.40405273 C-85.08081055 124.34217773 -91.78393555 124.28030273 -98.69018555 124.21655273 C-100.78273682 124.18924072 -102.87528809 124.16192871 -105.03125 124.13378906 C-123.58360573 123.99208488 -135.69250653 127.26633073 -148.99487305 140.58764648 Z M-156.37768555 210.40405273 C-156.46503808 227.88450707 -156.46503808 227.88450707 -156.52416992 245.36499023 C-156.54205763 252.5014521 -156.56314962 259.63779776 -156.60400391 266.77416992 C-156.63675701 272.53190123 -156.65457211 278.2895078 -156.66231728 284.04732513 C-156.66783224 286.2368033 -156.67860117 288.42627514 -156.69487572 290.61569977 C-156.87427192 314.39596049 -156.87427192 314.39596049 -145.33862305 334.62670898 C-137.74404156 341.80533283 -128.25522574 347.21328609 -117.63549805 347.47045898 C-106.30082051 346.98468709 -96.85134091 343.00073036 -88.64331055 335.15014648 C-83.26373258 328.62972698 -78.24720995 319.61212414 -78.25743103 311.05708313 C-78.25605637 310.16947296 -78.2546817 309.28186279 -78.25326538 308.36735535 C-78.25686066 307.39631363 -78.26045593 306.42527191 -78.26416016 305.42480469 C-78.26401413 304.4002417 -78.2638681 303.37567871 -78.26371765 302.32006836 C-78.26441532 298.92746883 -78.27220093 295.53492394 -78.2800293 292.14233398 C-78.28189399 289.79249603 -78.28331765 287.44265769 -78.28431702 285.09281921 C-78.28813811 278.90321787 -78.29796495 272.71363994 -78.309021 266.52404785 C-78.32104072 259.10014072 -78.3256393 251.67622578 -78.3314743 244.25231171 C-78.34117689 232.96954243 -78.36033633 221.68682452 -78.37768555 210.40405273 C-104.11768555 210.40405273 -129.85768555 210.40405273 -156.37768555 210.40405273 Z " fill="#3A2DAB" transform="translate(244.377685546875,64.595947265625)"/>
<path d="M0 0 C1.71703125 -0.01418472 1.71703125 -0.01418472 3.46875 -0.02865601 C4.6959375 -0.02258331 5.923125 -0.01651062 7.1875 -0.01025391 C9.09015625 -0.01455917 9.09015625 -0.01455917 11.03125 -0.01895142 C13.71125105 -0.02099159 16.39042925 -0.01697825 19.0703125 -0.00292969 C22.49682566 0.01416218 25.92263377 0.00431536 29.34912109 -0.01364708 C32.62860564 -0.02712449 35.90800623 -0.01767464 39.1875 -0.01025391 C41.02828125 -0.01936295 41.02828125 -0.01936295 42.90625 -0.02865601 C44.0509375 -0.01919952 45.195625 -0.00974304 46.375 0 C47.37917969 0.00238678 48.38335937 0.00477356 49.41796875 0.00723267 C53.81467833 0.61200309 56.27745851 2.20945794 58.97673035 5.70567322 C60.37060168 8.79385295 60.56189026 10.92808595 60.55981445 14.30834961 C60.56915764 16.06025352 60.56915764 16.06025352 60.57868958 17.84754944 C60.56947983 19.09974777 60.56027008 20.35194611 60.55078125 21.64208984 C60.55152901 23.58159767 60.55152901 23.58159767 60.55229187 25.56028748 C60.55220237 28.29136896 60.5418175 31.02215389 60.52368164 33.75317383 C60.50097243 37.24917027 60.50045673 40.7447347 60.50719929 44.24078465 C60.51134818 47.58293547 60.49936557 50.92495389 60.48828125 54.26708984 C60.48919266 55.52131241 60.49010406 56.77553497 60.49104309 58.06776428 C60.48151108 59.23254807 60.47197906 60.39733185 60.4621582 61.59741211 C60.45524712 63.1336599 60.45524712 63.1336599 60.44819641 64.70094299 C60.1793708 67.47197881 59.72082651 69.08007443 58.1875 71.38818359 C51.95159312 75.18671101 45.63568502 74.82375789 38.5 74.78662109 C36.67529175 74.79092636 36.67529175 74.79092636 34.8137207 74.7953186 C32.24853041 74.79735493 29.68332443 74.79185541 27.11816406 74.77929688 C23.20081731 74.76323819 19.28450232 74.77916143 15.3671875 74.79833984 C12.8697894 74.79635734 10.37239194 74.79251351 7.875 74.78662109 C6.70815674 74.79269379 5.54131348 74.79876648 4.33911133 74.80502319 C-1.7270546 74.75278046 -6.60302674 74.67643904 -11.8125 71.38818359 C-13.67907024 67.75884379 -14.06819236 64.73140742 -14.0871582 60.68334961 C-14.09669022 59.56191055 -14.10622223 58.4404715 -14.11604309 57.28504944 C-14.11513168 56.08287277 -14.11422028 54.88069611 -14.11328125 53.64208984 C-14.11756638 52.39822006 -14.1218515 51.15435028 -14.12626648 49.87278748 C-14.13347238 46.57231507 -14.13039045 43.27202543 -14.12469482 39.97155762 C-14.1249995 37.95398742 -14.13503734 35.93671082 -14.14868164 33.91918945 C-14.17318521 30.03501637 -14.17733674 26.1513306 -14.17578125 22.26708984 C-14.184991 21.06693741 -14.19420074 19.86678497 -14.20368958 18.63026428 C-14.14383032 7.82283816 -14.14383032 7.82283816 -10.8125 3.38818359 C-7.11070199 0.71355333 -4.53818309 0.01078656 0 0 Z M9.1875 24.38818359 C9.166875 28.47193359 9.14625 32.55568359 9.125 36.76318359 C9.115896 38.05015137 9.10679199 39.33711914 9.09741211 40.66308594 C9.09491455 41.67322754 9.09241699 42.68336914 9.08984375 43.72412109 C9.08460693 44.76101074 9.07937012 45.79790039 9.07397461 46.86621094 C9.01609185 49.38415039 9.01609185 49.38415039 10.1875 51.38818359 C19.0975 51.38818359 28.0075 51.38818359 37.1875 51.38818359 C37.1875 42.47818359 37.1875 33.56818359 37.1875 24.38818359 C27.9475 24.38818359 18.7075 24.38818359 9.1875 24.38818359 Z " fill="#392DAC" transform="translate(243.8125,136.61181640625)"/>
<path d="M0 0 C1.6940094 -0.0076664 1.6940094 -0.0076664 3.42224121 -0.01548767 C7.14426008 -0.0293537 10.86609318 -0.02842921 14.58813477 -0.02612305 C17.18213469 -0.0300114 19.77613398 -0.03434635 22.37013245 -0.03910828 C27.80293107 -0.04656391 33.23565805 -0.04642265 38.66845703 -0.04101562 C44.93341417 -0.03497595 51.19814673 -0.04729191 57.46306556 -0.06858569 C63.5088363 -0.08837305 69.55448999 -0.09136994 75.60029793 -0.08785057 C78.16428212 -0.08836331 80.72826995 -0.09359208 83.29223442 -0.10366249 C86.8798939 -0.11602542 90.46703604 -0.1092356 94.0546875 -0.09765625 C95.63610283 -0.10912186 95.63610283 -0.10912186 97.24946594 -0.12081909 C103.93832406 -0.07320317 110.25331143 0.36673244 115.52954102 4.9621582 C117.39639856 9.02531874 118.40629513 12.96912969 116.89672852 17.2434082 C115.00435209 20.75995023 112.98201584 23.21648137 109.59204102 25.2746582 C107.14602757 25.65497494 107.14602757 25.65497494 104.36122131 25.66233826 C102.77353691 25.67719521 102.77353691 25.67719521 101.15377808 25.69235229 C99.99782135 25.68785065 98.84186462 25.683349 97.65087891 25.67871094 C96.42937637 25.68557419 95.20787384 25.69243744 93.94935608 25.69950867 C90.60206867 25.71467542 87.25533805 25.71627033 83.90805745 25.71056628 C81.11231456 25.70747543 78.31662208 25.71356575 75.52088636 25.71960503 C68.92452611 25.73365148 62.32829536 25.73208818 55.73193359 25.72070312 C48.93012304 25.70922279 42.12870681 25.72329551 35.32694823 25.7500996 C29.48392209 25.77226219 23.64101968 25.77889273 17.7979545 25.77302319 C14.30957913 25.76965355 10.8214565 25.77206864 7.33311653 25.78927422 C3.44278654 25.80762508 -0.44705918 25.79355041 -4.33740234 25.77636719 C-6.06830109 25.79086914 -6.06830109 25.79086914 -7.83416748 25.80566406 C-15.63834291 25.73334798 -15.63834291 25.73334798 -19.58033752 23.38392639 C-23.04667285 19.38340933 -23.94399256 15.59492449 -23.78295898 10.27075195 C-23.08627457 6.56235888 -21.15011405 4.72509465 -18.40795898 2.2746582 C-12.3174657 -0.07677695 -6.47015483 -0.01517491 0 0 Z " fill="#4237AF" transform="translate(253.407958984375,250.725341796875)"/>
<path d="M0 0 C1.5244725 -0.01062721 1.5244725 -0.01062721 3.07974243 -0.02146912 C4.7357975 -0.01775299 4.7357975 -0.01775299 6.42530823 -0.01396179 C8.18221985 -0.02162819 8.18221985 -0.02162819 9.97462463 -0.02944946 C13.84699104 -0.04335133 17.7191796 -0.04238826 21.59156799 -0.04008484 C23.60267486 -0.04239407 25.61377734 -0.04589781 27.62488228 -0.04949158 C33.94655933 -0.06057714 40.26817695 -0.0610295 46.58985901 -0.05497742 C53.10361117 -0.04893719 59.61714734 -0.0612519 66.13086265 -0.08254749 C71.73102487 -0.10018067 77.33111843 -0.10616216 82.93130738 -0.10290974 C86.27270302 -0.1010995 89.61382161 -0.10502535 92.95521355 -0.11762428 C96.68239383 -0.12995336 100.40907353 -0.12321766 104.13624573 -0.11161804 C105.23825821 -0.11926178 106.34027069 -0.12690552 107.47567749 -0.13478088 C113.01040697 -0.09668747 117.09280141 0.07971179 121.84547424 3.26069641 C124.53417403 6.04210999 125.57623844 8.40164983 125.84547424 12.26069641 C124.89846083 17.16794773 123.75118946 20.08730279 119.84547424 23.26069641 C117.34724209 24.50981249 115.65147978 24.39489 112.85516357 24.40786743 C111.27160316 24.41860039 111.27160316 24.41860039 109.65605164 24.42955017 C108.49290436 24.43223907 107.32975708 24.43492798 106.13136292 24.43769836 C104.91015244 24.44426956 103.68894196 24.45084076 102.4307251 24.45761108 C99.0752302 24.47396678 95.71979842 24.48557341 92.36427855 24.49381661 C90.26800969 24.49896644 88.17174525 24.50504219 86.07547951 24.51132774 C79.51714415 24.5303806 72.95882005 24.54461141 66.40046233 24.55293971 C58.82920267 24.56271291 51.25823531 24.58903381 43.68707865 24.62944061 C37.83562604 24.65959805 31.98425722 24.67440822 26.1327284 24.67772073 C22.6375805 24.6800717 19.14274483 24.68903756 15.64768028 24.7141819 C11.74761466 24.74178639 7.8479338 24.73763258 3.94776917 24.73066711 C2.79069458 24.74347717 1.63362 24.75628723 0.44148254 24.76948547 C-7.38363979 24.71842558 -7.38363979 24.71842558 -11.32888794 22.37585449 C-14.28921257 18.94606436 -15.02300295 16.29408992 -15.59202576 11.82319641 C-15.02522599 7.20782691 -13.48406463 5.44225577 -10.15452576 2.26069641 C-6.66468466 0.55304703 -3.86589016 0.00901946 0 0 Z " fill="#3A2EAC" transform="translate(245.15452575683594,315.7393035888672)"/>
<path d="M0 0 C0.99 0 1.98 0 3 0 C3.33 19.8 3.66 39.6 4 60 C3.01 60 2.02 60 1 60 C-0.0427763 56.87167111 -0.12076845 54.70810913 -0.11352539 51.42700195 C-0.11344986 50.28604568 -0.11337433 49.14508942 -0.11329651 47.96955872 C-0.10813522 46.73823715 -0.10297394 45.50691559 -0.09765625 44.23828125 C-0.0962413 42.97735153 -0.09482635 41.71642181 -0.09336853 40.4172821 C-0.08871575 37.06848291 -0.07973342 33.71975189 -0.06866455 30.37097168 C-0.05842687 26.95239857 -0.05386586 23.53381841 -0.04882812 20.11523438 C-0.03779099 13.41013739 -0.02104686 6.70507263 0 0 Z " fill="#5045AB" transform="translate(230,146)"/>
<path d="M0 0 C-5.14657251 5.14657251 -13.7465047 4.23422459 -20.51455688 4.24884033 C-21.90228368 4.24176438 -23.2900095 4.2344948 -24.67773438 4.22705078 C-26.15672803 4.2264859 -27.63572225 4.22680472 -29.11471558 4.22793579 C-33.11003192 4.22850732 -37.10522707 4.21678548 -41.10051537 4.20278788 C-45.28319044 4.19024711 -49.46586859 4.18910739 -53.64855957 4.18673706 C-61.5602469 4.1805321 -69.47187867 4.16413465 -77.38354158 4.14403808 C-86.39443055 4.12164839 -95.40532223 4.11067794 -104.41623211 4.10064721 C-122.94418619 4.07976752 -141.47208862 4.04461074 -160 4 C-160 3.67 -160 3.34 -160 3 C-159.29322617 2.99761165 -158.58645233 2.99522329 -157.85826111 2.99276257 C-140.59467303 2.93341181 -123.33123198 2.85773511 -106.0677948 2.76428509 C-97.71903757 2.71947819 -89.37032156 2.68002949 -81.02148438 2.65356445 C-73.73758707 2.63046118 -66.45382189 2.59692784 -59.17002964 2.55129844 C-55.31970378 2.5275309 -51.46950743 2.50869508 -47.61911011 2.50238609 C-27.03158071 2.677983 -27.03158071 2.677983 -6.7590332 -0.45939636 C-4.03636058 -0.99287553 -2.57442072 -0.93991242 0 0 Z " fill="#4A42A0" transform="translate(361,409)"/>
<path d="M0 0 C0.33 0 0.66 0 1 0 C1 14.85 1 29.7 1 45 C-1.43915121 46.2195756 -2.91115147 46.08586292 -5.63330078 46.02172852 C-6.59414581 46.00163223 -7.55499084 45.98153595 -8.54495239 45.96083069 C-9.58457123 45.93379562 -10.62419006 45.90676056 -11.6953125 45.87890625 C-12.75789276 45.85529526 -13.82047302 45.83168427 -14.91525269 45.80735779 C-18.31863397 45.73060988 -21.72179404 45.64663335 -25.125 45.5625 C-27.42837449 45.50929046 -29.73175987 45.45655 -32.03515625 45.40429688 C-37.69024188 45.27497972 -43.34516242 45.13972279 -49 45 C-49 44.67 -49 44.34 -49 44 C-33.16 44 -17.32 44 -1 44 C-1.03960616 29.89365776 -1.03960616 29.89365776 -1.09008789 15.78735352 C-1.09300696 14.02620504 -1.09555554 12.26505589 -1.09765625 10.50390625 C-1.10277222 9.58057495 -1.10788818 8.65724365 -1.11315918 7.70593262 C-1.11334045 6.39658752 -1.11334045 6.39658752 -1.11352539 5.06079102 C-1.115746 4.29912125 -1.11796661 3.53745148 -1.12025452 2.75270081 C-1 1 -1 1 0 0 Z " fill="#2F208F" transform="translate(167,122)"/>
<path d="M0 0 C0.495 1.485 0.495 1.485 1 3 C-19.13 3 -39.26 3 -60 3 C-60 2.67 -60 2.34 -60 2 C-52.25875444 1.71388987 -44.51745745 1.42920396 -36.77612305 1.14550781 C-34.14264744 1.04883079 -31.50918377 0.95182782 -28.87573242 0.85449219 C-25.090363 0.71463688 -21.30495215 0.57595404 -17.51953125 0.4375 C-15.7536541 0.37187866 -15.7536541 0.37187866 -13.95210266 0.30493164 C-12.30095711 0.24486938 -12.30095711 0.24486938 -10.61645508 0.18359375 C-9.65048904 0.14806396 -8.68452301 0.11253418 -7.68928528 0.07592773 C-5.12442906 0.00351306 -2.56570726 -0.0136998 0 0 Z " fill="#1711C9" transform="translate(413,86)"/>
<path d="M0 0 C9.9 0 19.8 0 30 0 C30 0.66 30 1.32 30 2 C14.655 2.495 14.655 2.495 -1 3 C-0.67 2.01 -0.34 1.02 0 0 Z " fill="#2A218B" transform="translate(252,159)"/>
<path d="M0 0 C0.763125 0.20625 1.52625 0.4125 2.3125 0.625 C2.3125 1.285 2.3125 1.945 2.3125 2.625 C-0.08137157 3.29949966 -2.47719221 3.96476641 -4.875 4.625 C-5.54853516 4.81578125 -6.22207031 5.0065625 -6.91601562 5.203125 C-10.59305156 6.2075836 -13.8725182 6.86204741 -17.6875 6.625 C-17.6875 5.965 -17.6875 5.305 -17.6875 4.625 C-16.85605469 4.43164062 -16.02460938 4.23828125 -15.16796875 4.0390625 C-14.08128906 3.77867187 -12.99460937 3.51828125 -11.875 3.25 C-10.79605469 2.99476563 -9.71710938 2.73953125 -8.60546875 2.4765625 C-0.08068707 -0.01125866 -0.08068707 -0.01125866 0 0 Z " fill="#524AAA" transform="translate(366.6875,427.375)"/>
<path d="M0 0 C3.21695484 0.67019893 5.35346665 1.42034941 7.8125 3.625 C9.4982459 6.9964918 10.03084141 10.23734826 10 14 C9.0625 16.5 9.0625 16.5 8 18 C6.89155081 14.67465243 7.15545644 12.37817425 8 9 C7.34 8.67 6.68 8.34 6 8 C3 4.42307692 3 4.42307692 3 2 C1.02 2 -0.96 2 -3 2 C-2.01 1.34 -1.02 0.68 0 0 Z " fill="#7E79BE" transform="translate(361,252)"/>
<path d="M0 0 C-0.57344937 2.86724686 -0.8614515 3.8614515 -3 6 C-3.46006346 8.20250992 -3.46006346 8.20250992 -3.625 10.625 C-3.69976562 11.44226563 -3.77453125 12.25953125 -3.8515625 13.1015625 C-3.90054688 13.72804688 -3.94953125 14.35453125 -4 15 C-4.99 14.67 -5.98 14.34 -7 14 C-7.66964286 6.23214286 -7.66964286 6.23214286 -4.625 2.5 C-2 0 -2 0 0 0 Z " fill="#635AB2" transform="translate(237,253)"/>
<path d="M0 0 C-3.42298182 3.42298182 -8.06394189 3.91199736 -12.75 4.125 C-15.17007854 4.125 -17.58168642 4.08920009 -20 4 C-20 3.34 -20 2.68 -20 2 C-17.41842632 1.46867611 -14.83538244 0.94965621 -12.25 0.4375 C-11.52039063 0.28603516 -10.79078125 0.13457031 -10.0390625 -0.02148438 C-6.33442927 -0.74557178 -3.60677678 -1.09817231 0 0 Z " fill="#3B3090" transform="translate(361,409)"/>
<path d="M0 0 C-1.41632134 1.10460959 -2.83307264 2.20866788 -4.25 3.3125 C-5.03890625 3.92738281 -5.8278125 4.54226562 -6.640625 5.17578125 C-8.7462297 6.80379018 -10.86609343 8.40935863 -13 10 C-13.125 7.625 -13.125 7.625 -13 5 C-11 3 -11 3 -8 2 C-7.67 1.34 -7.34 0.68 -7 0 C-2.52459016 -1.26229508 -2.52459016 -1.26229508 0 0 Z " fill="#746DBF" transform="translate(110,194)"/>
<path d="M0 0 C6.6 0 13.2 0 20 0 C17.66603411 1.55597726 15.57343171 2.92081896 13 4 C12.34 3.67 11.68 3.34 11 3 C10.67 3.66 10.34 4.32 10 5 C9.67 4.34 9.34 3.68 9 3 C7.13507598 2.61004898 7.13507598 2.61004898 5 2.5 C2.8125 2.34375 2.8125 2.34375 1 2 C0.67 1.34 0.34 0.68 0 0 Z " fill="#3A2F93" transform="translate(116,411)"/>
<path d="M0 0 C1.65 0 3.3 0 5 0 C5 0.99 5 1.98 5 3 C6.32 3.33 7.64 3.66 9 4 C9 5.65 9 7.3 9 9 C8.67 7.68 8.34 6.36 8 5 C4.7 5 1.4 5 -2 5 C-1.34 3.35 -0.68 1.7 0 0 Z " fill="#33289B" transform="translate(159,184)"/>
<path d="M0 0 C0.99 0 1.98 0 3 0 C3.5497272 5.63470383 1.95047835 8.38987758 -1 13 C-1.66 13 -2.32 13 -3 13 C-2.649375 12.071875 -2.29875 11.14375 -1.9375 10.1875 C-0.67617372 7.0197047 -0.67617372 7.0197047 -2 4 C-1.34 3.34 -0.68 2.68 0 2 C0 1.34 0 0.68 0 0 Z " fill="#3A30A2" transform="translate(420,378)"/>
<path d="M0 0 C0.66 0 1.32 0 2 0 C2 5.61 2 11.22 2 17 C1.34 16.67 0.68 16.34 0 16 C-0.44921875 12.91015625 -0.44921875 12.91015625 -0.6875 9.0625 C-0.77386719 7.79535156 -0.86023438 6.52820313 -0.94921875 5.22265625 C-1 2 -1 2 0 0 Z " fill="#1811BF" transform="translate(252,163)"/>
<path d="M0 0 C0.33 0.66 0.66 1.32 1 2 C1.66 2 2.32 2 3 2 C3.33 2.99 3.66 3.98 4 5 C2.1875 8.1875 2.1875 8.1875 0 11 C-0.66 11 -1.32 11 -2 11 C-1.125 3.375 -1.125 3.375 0 0 Z " fill="#655DB2" transform="translate(169,105)"/>
<path d="M0 0 C0 0.33 0 0.66 0 1 C-1.65 1 -3.3 1 -5 1 C-5.33 1.99 -5.66 2.98 -6 4 C-8.64 3.67 -11.28 3.34 -14 3 C-9.85211179 -1.14788821 -5.49312659 -1.30788728 0 0 Z " fill="#766BB9" transform="translate(115,168)"/>
<path d="M0 0 C0.66 0.99 1.32 1.98 2 3 C1 6 1 6 -1 8 C-3.625 8.125 -3.625 8.125 -6 8 C-2.25 1.125 -2.25 1.125 0 0 Z " fill="#453DA7" transform="translate(162,391)"/>
<path d="M0 0 C0.66 0 1.32 0 2 0 C1.67 3.96 1.34 7.92 1 12 C0.34 12 -0.32 12 -1 12 C-1.02687279 10.18757948 -1.04633715 8.37504767 -1.0625 6.5625 C-1.07410156 5.55316406 -1.08570313 4.54382813 -1.09765625 3.50390625 C-1 1 -1 1 0 0 Z " fill="#4B43A4" transform="translate(432,347)"/>
<path d="M0 0 C2.91818671 -0.34740318 5.13765057 -0.50109494 7.734375 1.0078125 C9.375 2.3125 9.375 2.3125 12 5 C12 5.99 12 6.98 12 8 C11.34 8 10.68 8 10 8 C9.34 7.01 8.68 6.02 8 5 C7.01 4.67 6.02 4.34 5 4 C4.67 3.34 4.34 2.68 4 2 C1.98330173 0.86649466 1.98330173 0.86649466 0 0 Z " fill="#5348A6" transform="translate(422,66)"/>
<path d="M0 0 C0 3.28176588 -0.47835901 5.10888212 -2 8 C-4.0625 8.625 -4.0625 8.625 -6 9 C-6.33 9.99 -6.66 10.98 -7 12 C-7.66 11.67 -8.32 11.34 -9 11 C-6.03 7.37 -3.06 3.74 0 0 Z " fill="#6159AD" transform="translate(85,181)"/>
<path d="M0 0 C0.66 1.32 1.32 2.64 2 4 C0.68 4.33 -0.64 4.66 -2 5 C-2 5.66 -2 6.32 -2 7 C-2.66 7 -3.32 7 -4 7 C-4 8.98 -4 10.96 -4 13 C-4.33 13 -4.66 13 -5 13 C-5.602537 6.97463002 -5.602537 6.97463002 -3.88671875 4.19921875 C-2.65378147 2.74400545 -1.33191067 1.36520843 0 0 Z " fill="#695FB7" transform="translate(235,318)"/>
<path d="M0 0 C-0.33 0.99 -0.66 1.98 -1 3 C-2.65 2.67 -4.3 2.34 -6 2 C-6 2.66 -6 3.32 -6 4 C-8.31 4 -10.62 4 -13 4 C-9.4281377 0.4281377 -4.89813766 0 0 0 Z " fill="#5149AB" transform="translate(215,67)"/>
<path d="M0 0 C1.62463842 -0.05395478 3.24978541 -0.09277195 4.875 -0.125 C5.77992187 -0.14820313 6.68484375 -0.17140625 7.6171875 -0.1953125 C10 0 10 0 12 2 C11 3 11 3 8.25 3.1875 C5.03256076 3.00187851 2.89243317 2.36114502 0 1 C0 0.67 0 0.34 0 0 Z " fill="#453CA4" transform="translate(112,431)"/>
<path d="M0 0 C0.93423645 3.01031744 1.04449911 3.86650268 0 7 C-0.99 7.33 -1.98 7.66 -3 8 C-4.37195574 9.29355827 -5.71182656 10.62298702 -7 12 C-5.44298069 7.32894208 -2.91552627 3.91294315 0 0 Z " fill="#746EBF" transform="translate(403,371)"/>
<path d="M0 0 C3.96 0 7.92 0 12 0 C12 0.33 12 0.66 12 1 C10.23225581 1.53122363 8.46065917 2.04964073 6.6875 2.5625 C5.70136719 2.85253906 4.71523437 3.14257812 3.69921875 3.44140625 C1 4 1 4 -2 3 C-1.34 3 -0.68 3 0 3 C0 2.01 0 1.02 0 0 Z " fill="#7773C0" transform="translate(112,189)"/>
<path d="M0 0 C2.31 0 4.62 0 7 0 C4.11912454 2.40072955 1.43595166 4.47291037 -2 6 C-2.33 5.01 -2.66 4.02 -3 3 C-2.01 2.67 -1.02 2.34 0 2 C0 1.34 0 0.68 0 0 Z " fill="#5E57A9" transform="translate(204,92)"/>
<path d="M0 0 C1.28222189 3.03070628 0.98589446 4.03596914 -0.25 7.1875 C-2 10 -2 10 -5 11 C-3.77472971 6.94718288 -2.30119506 3.55639236 0 0 Z " fill="#5348A8" transform="translate(75,194)"/>
<path d="M0 0 C0 0.99 0 1.98 0 3 C-1.28788008 3.53012738 -2.58046678 4.0488329 -3.875 4.5625 C-4.95394531 4.99755859 -4.95394531 4.99755859 -6.0546875 5.44140625 C-8 6 -8 6 -10 5 C-8.71186658 4.16121545 -7.41936744 3.32913217 -6.125 2.5 C-5.40570313 2.0359375 -4.68640625 1.571875 -3.9453125 1.09375 C-2 0 -2 0 0 0 Z " fill="#7D74C0" transform="translate(101,171)"/>
<path d="M0 0 C0.66 0.33 1.32 0.66 2 1 C-3.14285714 7.57142857 -3.14285714 7.57142857 -7 9 C-6.67 7.68 -6.34 6.36 -6 5 C-5.34 5 -4.68 5 -4 5 C-3.71125 4.360625 -3.4225 3.72125 -3.125 3.0625 C-2 1 -2 1 0 0 Z " fill="#2F2594" transform="translate(407,402)"/>
<path d="M0 0 C2.75 0.25 2.75 0.25 5 1 C5 1.66 5 2.32 5 3 C0.545 3.495 0.545 3.495 -4 4 C-2.3125 1.9375 -2.3125 1.9375 0 0 Z " fill="#453D9D" transform="translate(364,427)"/>
<path d="M0 0 C-2.42115191 2.42115191 -3.64160525 2.60948898 -7 3 C-9.8125 2.5625 -9.8125 2.5625 -12 2 C-12 1.67 -12 1.34 -12 1 C-3.96428571 -1.27678571 -3.96428571 -1.27678571 0 0 Z " fill="#564DA1" transform="translate(361,409)"/>
<path d="M0 0 C0.66 0 1.32 0 2 0 C1.19642857 8.03571429 1.19642857 8.03571429 -1 12 C-1.02687279 10.18757948 -1.04633715 8.37504767 -1.0625 6.5625 C-1.07410156 5.55316406 -1.08570313 4.54382813 -1.09765625 3.50390625 C-1 1 -1 1 0 0 Z " fill="#6760B6" transform="translate(186,381)"/>
<path d="M0 0 C0.33 0.66 0.66 1.32 1 2 C0.06421005 4.35981813 -0.93347808 6.69631264 -2 9 C-2.66 9 -3.32 9 -4 9 C-2.94124926 5.59687262 -1.99097846 2.98646769 0 0 Z " fill="#8079C0" transform="translate(175,93)"/>
<path d="M0 0 C0.99 0 1.98 0 3 0 C2.46930939 3.82097239 1.50298434 6.06171403 -1 9 C-0.67 6.03 -0.34 3.06 0 0 Z " fill="#7E76BB" transform="translate(181,395)"/>
<path d="M0 0 C0.99 0 1.98 0 3 0 C2.39816251 2.02045442 1.72693904 4.02111039 1 6 C0.01 6.495 0.01 6.495 -1 7 C-0.67 4.69 -0.34 2.38 0 0 Z " fill="#4034A1" transform="translate(425,372)"/>
<path d="M0 0 C-0.33 2.97 -0.66 5.94 -1 9 C-3 5 -3 5 -3 1 C-1 0 -1 0 0 0 Z " fill="#4239A5" transform="translate(430,363)"/>
<path d="M0 0 C0 0.33 0 0.66 0 1 C-4.455 1.495 -4.455 1.495 -9 2 C-9 1.34 -9 0.68 -9 0 C-5.93109813 -1.53445094 -3.29905734 -0.54984289 0 0 Z " fill="#3F3798" transform="translate(226,88)"/>
</svg>
